<mxfile host="Electron" modified="2024-03-09T20:38:32.244Z" agent="Mozilla/5.0 (Windows NT 10.0; Win64; x64) AppleWebKit/537.36 (KHTML, like Gecko) draw.io/23.1.5 Chrome/120.0.6099.109 Electron/28.1.0 Safari/537.36" etag="KZXbnDTXzYZmBXywGyEw" version="23.1.5" type="device">
  <diagram name="Page-1" id="UO-2janXki3INj6RSUzA">
    <mxGraphModel dx="-331" dy="516" grid="1" gridSize="10" guides="1" tooltips="1" connect="1" arrows="1" fold="1" page="1" pageScale="1" pageWidth="1169" pageHeight="827" math="0" shadow="0">
      <root>
        <mxCell id="0" />
        <mxCell id="1" parent="0" />
        <mxCell id="6MY7E0qqYCqP_GdmZhxb-77" style="edgeStyle=orthogonalEdgeStyle;rounded=0;orthogonalLoop=1;jettySize=auto;html=1;exitX=0.25;exitY=0;exitDx=0;exitDy=0;" parent="1" source="SIbeXiMkhlzWqAwlZW-l-3" edge="1">
          <mxGeometry relative="1" as="geometry">
            <mxPoint x="1211.230769230769" y="90" as="targetPoint" />
          </mxGeometry>
        </mxCell>
        <mxCell id="6MY7E0qqYCqP_GdmZhxb-116" style="edgeStyle=orthogonalEdgeStyle;rounded=0;orthogonalLoop=1;jettySize=auto;html=1;exitX=0.25;exitY=1;exitDx=0;exitDy=0;entryX=0.25;entryY=0;entryDx=0;entryDy=0;" parent="1" source="SIbeXiMkhlzWqAwlZW-l-3" target="SIbeXiMkhlzWqAwlZW-l-41" edge="1">
          <mxGeometry relative="1" as="geometry" />
        </mxCell>
        <mxCell id="SIbeXiMkhlzWqAwlZW-l-3" value="Member" style="rounded=0;whiteSpace=wrap;html=1;fontSize=20;fillColor=#fad7ac;strokeColor=#b46504;" parent="1" vertex="1">
          <mxGeometry x="1185.5" y="208.32999999999998" width="93" height="51.67" as="geometry" />
        </mxCell>
        <mxCell id="6MY7E0qqYCqP_GdmZhxb-106" style="edgeStyle=orthogonalEdgeStyle;rounded=0;orthogonalLoop=1;jettySize=auto;html=1;exitX=0.25;exitY=1;exitDx=0;exitDy=0;entryX=1;entryY=0.25;entryDx=0;entryDy=0;" parent="1" source="SIbeXiMkhlzWqAwlZW-l-14" target="6MY7E0qqYCqP_GdmZhxb-69" edge="1">
          <mxGeometry relative="1" as="geometry">
            <Array as="points">
              <mxPoint x="1690" y="626" />
              <mxPoint x="1690" y="30" />
            </Array>
          </mxGeometry>
        </mxCell>
        <mxCell id="SIbeXiMkhlzWqAwlZW-l-14" value="D2" style="swimlane;whiteSpace=wrap;html=1;direction=north;startSize=35;rounded=1;fillColor=#e3c800;fontColor=#000000;strokeColor=#B09500;" parent="1" vertex="1">
          <mxGeometry x="1181" y="591" width="133.17" height="47" as="geometry" />
        </mxCell>
        <mxCell id="SIbeXiMkhlzWqAwlZW-l-18" value="Books" style="text;html=1;align=center;verticalAlign=middle;resizable=0;points=[];autosize=1;strokeColor=none;fillColor=none;fontSize=16;" parent="SIbeXiMkhlzWqAwlZW-l-14" vertex="1">
          <mxGeometry x="44" y="8.5" width="70" height="30" as="geometry" />
        </mxCell>
        <mxCell id="6MY7E0qqYCqP_GdmZhxb-67" style="edgeStyle=orthogonalEdgeStyle;rounded=0;orthogonalLoop=1;jettySize=auto;html=1;exitX=0.5;exitY=1;exitDx=0;exitDy=0;" parent="1" source="SIbeXiMkhlzWqAwlZW-l-41" edge="1">
          <mxGeometry relative="1" as="geometry">
            <mxPoint x="1242" y="590" as="targetPoint" />
          </mxGeometry>
        </mxCell>
        <mxCell id="SIbeXiMkhlzWqAwlZW-l-41" value="2" style="swimlane;whiteSpace=wrap;html=1;rounded=1;fillColor=#6d8764;fontColor=#ffffff;strokeColor=#3A5431;" parent="1" vertex="1">
          <mxGeometry x="1177" y="379" width="130" height="80" as="geometry" />
        </mxCell>
        <mxCell id="SIbeXiMkhlzWqAwlZW-l-42" value="Return a book" style="text;html=1;align=center;verticalAlign=middle;resizable=0;points=[];autosize=1;strokeColor=none;fillColor=none;fontSize=16;" parent="SIbeXiMkhlzWqAwlZW-l-41" vertex="1">
          <mxGeometry x="5" y="37" width="120" height="30" as="geometry" />
        </mxCell>
        <mxCell id="SIbeXiMkhlzWqAwlZW-l-55" style="edgeStyle=orthogonalEdgeStyle;rounded=0;orthogonalLoop=1;jettySize=auto;html=1;exitX=0;exitY=0.5;exitDx=0;exitDy=0;entryX=0;entryY=0.25;entryDx=0;entryDy=0;" parent="1" source="SIbeXiMkhlzWqAwlZW-l-51" target="SIbeXiMkhlzWqAwlZW-l-14" edge="1">
          <mxGeometry relative="1" as="geometry" />
        </mxCell>
        <mxCell id="SIbeXiMkhlzWqAwlZW-l-51" value="3" style="swimlane;whiteSpace=wrap;html=1;rounded=1;fillColor=#6d8764;fontColor=#ffffff;strokeColor=#3A5431;" parent="1" vertex="1">
          <mxGeometry x="1949" y="741" width="134" height="67" as="geometry" />
        </mxCell>
        <mxCell id="SIbeXiMkhlzWqAwlZW-l-52" value="Add a New Book" style="text;html=1;align=center;verticalAlign=middle;resizable=0;points=[];autosize=1;strokeColor=none;fillColor=none;fontSize=13;" parent="SIbeXiMkhlzWqAwlZW-l-51" vertex="1">
          <mxGeometry x="5" y="29" width="120" height="30" as="geometry" />
        </mxCell>
        <mxCell id="SIbeXiMkhlzWqAwlZW-l-53" style="edgeStyle=orthogonalEdgeStyle;rounded=0;orthogonalLoop=1;jettySize=auto;html=1;exitX=1;exitY=0.5;exitDx=0;exitDy=0;entryX=1;entryY=0.5;entryDx=0;entryDy=0;" parent="1" source="SIbeXiMkhlzWqAwlZW-l-6" target="SIbeXiMkhlzWqAwlZW-l-51" edge="1">
          <mxGeometry relative="1" as="geometry" />
        </mxCell>
        <mxCell id="SIbeXiMkhlzWqAwlZW-l-59" style="edgeStyle=orthogonalEdgeStyle;rounded=0;orthogonalLoop=1;jettySize=auto;html=1;exitX=1;exitY=0.75;exitDx=0;exitDy=0;entryX=0.75;entryY=0;entryDx=0;entryDy=0;" parent="1" source="SIbeXiMkhlzWqAwlZW-l-3" target="SIbeXiMkhlzWqAwlZW-l-57" edge="1">
          <mxGeometry relative="1" as="geometry" />
        </mxCell>
        <mxCell id="SIbeXiMkhlzWqAwlZW-l-69" style="edgeStyle=orthogonalEdgeStyle;rounded=0;orthogonalLoop=1;jettySize=auto;html=1;exitX=0;exitY=0.75;exitDx=0;exitDy=0;entryX=0.5;entryY=1;entryDx=0;entryDy=0;" parent="1" source="SIbeXiMkhlzWqAwlZW-l-14" target="SIbeXiMkhlzWqAwlZW-l-65" edge="1">
          <mxGeometry relative="1" as="geometry" />
        </mxCell>
        <mxCell id="SIbeXiMkhlzWqAwlZW-l-83" value="&lt;font style=&quot;font-size: 15px;&quot;&gt;Book Info&lt;/font&gt;" style="rounded=0;whiteSpace=wrap;html=1;fillColor=#647687;strokeColor=#314354;fontColor=#ffffff;fontSize=15;" parent="1" vertex="1">
          <mxGeometry x="2177" y="752" width="90" height="45" as="geometry" />
        </mxCell>
        <mxCell id="SIbeXiMkhlzWqAwlZW-l-87" value="Update Book&lt;br style=&quot;font-size: 10px;&quot;&gt;Status" style="rounded=0;whiteSpace=wrap;html=1;fillColor=#647687;fontColor=#ffffff;strokeColor=#314354;fontSize=10;" parent="1" vertex="1">
          <mxGeometry x="1205.5" y="499" width="73" height="36.5" as="geometry" />
        </mxCell>
        <mxCell id="SIbeXiMkhlzWqAwlZW-l-93" value="Store Book Info" style="rounded=0;whiteSpace=wrap;html=1;fontSize=15;fillColor=#647687;fontColor=#ffffff;strokeColor=#314354;" parent="1" vertex="1">
          <mxGeometry x="1573" y="751" width="88" height="44" as="geometry" />
        </mxCell>
        <mxCell id="SIbeXiMkhlzWqAwlZW-l-94" value="&lt;font style=&quot;font-size: 15px;&quot;&gt;Books Info&lt;/font&gt;" style="rounded=0;whiteSpace=wrap;html=1;fillColor=#647687;strokeColor=#314354;fontColor=#ffffff;fontSize=15;" parent="1" vertex="1">
          <mxGeometry x="1593" y="640" width="84" height="42" as="geometry" />
        </mxCell>
        <mxCell id="SIbeXiMkhlzWqAwlZW-l-6" value="&lt;font style=&quot;font-size: 20px;&quot;&gt;Librarian&lt;/font&gt;" style="rounded=0;whiteSpace=wrap;html=1;fillColor=#fad7ac;strokeColor=#b46504;fontSize=20;" parent="1" vertex="1">
          <mxGeometry x="2197.5" y="225.5" width="108" height="60" as="geometry" />
        </mxCell>
        <mxCell id="SIbeXiMkhlzWqAwlZW-l-15" value="D1" style="swimlane;whiteSpace=wrap;html=1;direction=north;startSize=35;rounded=1;swimlaneLine=1;glass=0;shadow=0;fillColor=#e3c800;fontColor=#000000;strokeColor=#B09500;" parent="1" vertex="1">
          <mxGeometry x="2073.92" y="540" width="126.08" height="44.5" as="geometry">
            <mxRectangle x="780" y="320" width="70" height="35" as="alternateBounds" />
          </mxGeometry>
        </mxCell>
        <mxCell id="SIbeXiMkhlzWqAwlZW-l-17" value="Members" style="text;html=1;align=center;verticalAlign=middle;resizable=0;points=[];autosize=1;strokeColor=none;fillColor=none;fontSize=16;container=1;" parent="SIbeXiMkhlzWqAwlZW-l-15" vertex="1">
          <mxGeometry x="36.08" y="7.25" width="90" height="30" as="geometry" />
        </mxCell>
        <mxCell id="SIbeXiMkhlzWqAwlZW-l-32" value="" style="text;html=1;align=center;verticalAlign=middle;resizable=0;points=[];autosize=1;strokeColor=none;fillColor=none;fontSize=13;" parent="1" vertex="1">
          <mxGeometry x="2129" y="470" width="100" height="30" as="geometry" />
        </mxCell>
        <mxCell id="SIbeXiMkhlzWqAwlZW-l-67" style="edgeStyle=orthogonalEdgeStyle;rounded=0;orthogonalLoop=1;jettySize=auto;html=1;exitX=0.75;exitY=0;exitDx=0;exitDy=0;entryX=0.75;entryY=1;entryDx=0;entryDy=0;" parent="1" source="SIbeXiMkhlzWqAwlZW-l-15" target="SIbeXiMkhlzWqAwlZW-l-65" edge="1">
          <mxGeometry relative="1" as="geometry" />
        </mxCell>
        <mxCell id="6MY7E0qqYCqP_GdmZhxb-8" style="edgeStyle=orthogonalEdgeStyle;rounded=0;orthogonalLoop=1;jettySize=auto;html=1;exitX=0;exitY=0.75;exitDx=0;exitDy=0;entryX=0;entryY=0.5;entryDx=0;entryDy=0;" parent="1" source="6MY7E0qqYCqP_GdmZhxb-4" target="SIbeXiMkhlzWqAwlZW-l-14" edge="1">
          <mxGeometry relative="1" as="geometry">
            <mxPoint x="1944" y="712" as="sourcePoint" />
            <mxPoint x="1269" y="660" as="targetPoint" />
          </mxGeometry>
        </mxCell>
        <mxCell id="6MY7E0qqYCqP_GdmZhxb-4" value="6" style="swimlane;whiteSpace=wrap;html=1;rounded=1;fillColor=#6d8764;fontColor=#ffffff;strokeColor=#3A5431;" parent="1" vertex="1">
          <mxGeometry x="1949" y="660.5" width="120" height="69" as="geometry" />
        </mxCell>
        <mxCell id="6MY7E0qqYCqP_GdmZhxb-5" value="Update Book" style="text;html=1;align=center;verticalAlign=middle;resizable=0;points=[];autosize=1;strokeColor=none;fillColor=none;fontSize=16;" parent="6MY7E0qqYCqP_GdmZhxb-4" vertex="1">
          <mxGeometry y="28.5" width="120" height="30" as="geometry" />
        </mxCell>
        <mxCell id="6MY7E0qqYCqP_GdmZhxb-7" style="edgeStyle=orthogonalEdgeStyle;rounded=0;orthogonalLoop=1;jettySize=auto;html=1;exitX=0.75;exitY=1;exitDx=0;exitDy=0;entryX=1;entryY=0.75;entryDx=0;entryDy=0;" parent="1" source="SIbeXiMkhlzWqAwlZW-l-6" target="6MY7E0qqYCqP_GdmZhxb-4" edge="1">
          <mxGeometry relative="1" as="geometry" />
        </mxCell>
        <mxCell id="6MY7E0qqYCqP_GdmZhxb-61" value="Update Book Info" style="rounded=0;whiteSpace=wrap;html=1;fontSize=15;fillColor=#647687;fontColor=#ffffff;strokeColor=#314354;" parent="1" vertex="1">
          <mxGeometry x="1417" y="690" width="88" height="44" as="geometry" />
        </mxCell>
        <mxCell id="6MY7E0qqYCqP_GdmZhxb-64" value="&lt;font style=&quot;font-size: 15px;&quot;&gt;Update Book&lt;/font&gt;" style="rounded=0;whiteSpace=wrap;html=1;fillColor=#647687;strokeColor=#314354;fontColor=#ffffff;fontSize=15;" parent="1" vertex="1">
          <mxGeometry x="2140" y="692" width="84" height="42" as="geometry" />
        </mxCell>
        <mxCell id="6MY7E0qqYCqP_GdmZhxb-79" style="edgeStyle=orthogonalEdgeStyle;rounded=0;orthogonalLoop=1;jettySize=auto;html=1;exitX=1;exitY=0.75;exitDx=0;exitDy=0;entryX=1;entryY=0.25;entryDx=0;entryDy=0;" parent="1" source="6MY7E0qqYCqP_GdmZhxb-69" target="SIbeXiMkhlzWqAwlZW-l-3" edge="1">
          <mxGeometry relative="1" as="geometry">
            <Array as="points">
              <mxPoint x="1430" y="70" />
              <mxPoint x="1430" y="221" />
            </Array>
          </mxGeometry>
        </mxCell>
        <mxCell id="6MY7E0qqYCqP_GdmZhxb-104" style="edgeStyle=orthogonalEdgeStyle;rounded=0;orthogonalLoop=1;jettySize=auto;html=1;exitX=1;exitY=0.5;exitDx=0;exitDy=0;entryX=0.5;entryY=1;entryDx=0;entryDy=0;" parent="1" source="6MY7E0qqYCqP_GdmZhxb-69" target="SIbeXiMkhlzWqAwlZW-l-14" edge="1">
          <mxGeometry relative="1" as="geometry">
            <Array as="points">
              <mxPoint x="1630" y="50" />
              <mxPoint x="1630" y="615" />
            </Array>
          </mxGeometry>
        </mxCell>
        <mxCell id="6MY7E0qqYCqP_GdmZhxb-69" value="7" style="swimlane;whiteSpace=wrap;html=1;rounded=1;fillColor=#6d8764;fontColor=#ffffff;strokeColor=#3A5431;startSize=23;" parent="1" vertex="1">
          <mxGeometry x="1181" y="9.999999999999986" width="135" height="80" as="geometry" />
        </mxCell>
        <mxCell id="6MY7E0qqYCqP_GdmZhxb-70" value="Order a Book" style="text;html=1;align=center;verticalAlign=middle;resizable=0;points=[];autosize=1;strokeColor=none;fillColor=none;fontSize=16;" parent="6MY7E0qqYCqP_GdmZhxb-69" vertex="1">
          <mxGeometry x="5" y="37" width="120" height="30" as="geometry" />
        </mxCell>
        <mxCell id="6MY7E0qqYCqP_GdmZhxb-73" value="Book Request" style="rounded=0;whiteSpace=wrap;html=1;fillColor=#647687;strokeColor=#314354;fontColor=#ffffff;fontSize=12;" parent="1" vertex="1">
          <mxGeometry x="1178.12" y="135" width="81.88" height="37.5" as="geometry" />
        </mxCell>
        <mxCell id="SIbeXiMkhlzWqAwlZW-l-57" value="4" style="swimlane;whiteSpace=wrap;html=1;rounded=1;fillColor=#6d8764;fontColor=#ffffff;strokeColor=#3A5431;" parent="1" vertex="1">
          <mxGeometry x="1427.67" y="362" width="135" height="80" as="geometry" />
        </mxCell>
        <mxCell id="SIbeXiMkhlzWqAwlZW-l-58" value="Reserve a Book" style="text;html=1;align=center;verticalAlign=middle;resizable=0;points=[];autosize=1;strokeColor=none;fillColor=none;fontSize=16;" parent="SIbeXiMkhlzWqAwlZW-l-57" vertex="1">
          <mxGeometry x="-5" y="37" width="140" height="30" as="geometry" />
        </mxCell>
        <mxCell id="SIbeXiMkhlzWqAwlZW-l-84" value="&lt;font style=&quot;font-size: 13px;&quot;&gt;Book Info&lt;/font&gt;" style="rounded=0;whiteSpace=wrap;html=1;fillColor=#647687;strokeColor=#314354;fontColor=#ffffff;fontSize=13;" parent="1" vertex="1">
          <mxGeometry x="1369.3300000000002" y="233.32999999999998" width="58.34" height="29.17" as="geometry" />
        </mxCell>
        <mxCell id="6MY7E0qqYCqP_GdmZhxb-80" value="Book, Return Date" style="rounded=0;whiteSpace=wrap;html=1;fillColor=#647687;strokeColor=#314354;fontColor=#ffffff;fontSize=11;" parent="1" vertex="1">
          <mxGeometry x="1393" y="130" width="81.88" height="37.5" as="geometry" />
        </mxCell>
        <mxCell id="SIbeXiMkhlzWqAwlZW-l-88" value="&lt;font style=&quot;font-size: 15px;&quot;&gt;Book&lt;/font&gt;" style="rounded=0;whiteSpace=wrap;html=1;fillColor=#647687;strokeColor=#314354;fontColor=#ffffff;fontSize=15;" parent="1" vertex="1">
          <mxGeometry x="1181.06" y="298.17" width="56" height="28" as="geometry" />
        </mxCell>
        <mxCell id="6MY7E0qqYCqP_GdmZhxb-98" style="edgeStyle=orthogonalEdgeStyle;rounded=0;orthogonalLoop=1;jettySize=auto;html=1;exitX=0.5;exitY=1;exitDx=0;exitDy=0;entryX=1;entryY=0.5;entryDx=0;entryDy=0;" parent="1" source="SIbeXiMkhlzWqAwlZW-l-23" target="SIbeXiMkhlzWqAwlZW-l-15" edge="1">
          <mxGeometry relative="1" as="geometry" />
        </mxCell>
        <mxCell id="SIbeXiMkhlzWqAwlZW-l-23" value="1" style="swimlane;whiteSpace=wrap;html=1;rounded=1;fillColor=#6d8764;fontColor=#ffffff;strokeColor=#3A5431;" parent="1" vertex="1">
          <mxGeometry x="2071.96" y="334" width="130" height="80" as="geometry" />
        </mxCell>
        <mxCell id="SIbeXiMkhlzWqAwlZW-l-24" value="Add / Update&lt;br&gt;Member Info" style="text;html=1;align=center;verticalAlign=middle;resizable=0;points=[];autosize=1;strokeColor=none;fillColor=none;fontSize=16;" parent="SIbeXiMkhlzWqAwlZW-l-23" vertex="1">
          <mxGeometry x="4" y="27" width="120" height="50" as="geometry" />
        </mxCell>
        <mxCell id="SIbeXiMkhlzWqAwlZW-l-77" value="&lt;font style=&quot;font-size: 10px;&quot;&gt;Add / Update&lt;/font&gt;" style="rounded=0;whiteSpace=wrap;html=1;fillColor=#647687;strokeColor=#314354;fontColor=#ffffff;fontSize=10;" parent="1" vertex="1">
          <mxGeometry x="2108" y="456" width="57" height="28.5" as="geometry" />
        </mxCell>
        <mxCell id="6MY7E0qqYCqP_GdmZhxb-100" style="edgeStyle=orthogonalEdgeStyle;rounded=0;orthogonalLoop=1;jettySize=auto;html=1;exitX=0;exitY=0.5;exitDx=0;exitDy=0;entryX=1.007;entryY=0.404;entryDx=0;entryDy=0;entryPerimeter=0;" parent="1" source="SIbeXiMkhlzWqAwlZW-l-6" target="SIbeXiMkhlzWqAwlZW-l-75" edge="1">
          <mxGeometry relative="1" as="geometry" />
        </mxCell>
        <mxCell id="SIbeXiMkhlzWqAwlZW-l-5" value="&lt;font style=&quot;font-size: 20px;&quot;&gt;Library&lt;br style=&quot;font-size: 20px;&quot;&gt;Manager&lt;/font&gt;" style="rounded=0;whiteSpace=wrap;html=1;fillColor=#fad7ac;strokeColor=#b46504;fontSize=20;" parent="1" vertex="1">
          <mxGeometry x="1716.5" y="18.61" width="104" height="57.78" as="geometry" />
        </mxCell>
        <mxCell id="6MY7E0qqYCqP_GdmZhxb-65" style="edgeStyle=orthogonalEdgeStyle;rounded=0;orthogonalLoop=1;jettySize=auto;html=1;exitX=0.5;exitY=0;exitDx=0;exitDy=0;entryX=1;entryY=0.5;entryDx=0;entryDy=0;" parent="1" source="SIbeXiMkhlzWqAwlZW-l-79" target="SIbeXiMkhlzWqAwlZW-l-5" edge="1">
          <mxGeometry relative="1" as="geometry" />
        </mxCell>
        <mxCell id="SIbeXiMkhlzWqAwlZW-l-79" value="D4" style="swimlane;whiteSpace=wrap;html=1;direction=north;startSize=35;rounded=1;swimlaneLine=1;glass=0;shadow=0;fillColor=#e3c800;fontColor=#000000;strokeColor=#B09500;" parent="1" vertex="1">
          <mxGeometry x="2059.5" y="22" width="144.5" height="51" as="geometry">
            <mxRectangle x="780" y="320" width="70" height="35" as="alternateBounds" />
          </mxGeometry>
        </mxCell>
        <mxCell id="SIbeXiMkhlzWqAwlZW-l-80" value="Reports" style="text;html=1;align=center;verticalAlign=middle;resizable=0;points=[];autosize=1;strokeColor=none;fillColor=none;fontSize=16;container=1;" parent="SIbeXiMkhlzWqAwlZW-l-79" vertex="1">
          <mxGeometry x="46" y="10.5" width="80" height="30" as="geometry" />
        </mxCell>
        <mxCell id="SIbeXiMkhlzWqAwlZW-l-81" style="edgeStyle=orthogonalEdgeStyle;rounded=0;orthogonalLoop=1;jettySize=auto;html=1;exitX=0.75;exitY=0;exitDx=0;exitDy=0;" parent="1" source="SIbeXiMkhlzWqAwlZW-l-65" edge="1">
          <mxGeometry relative="1" as="geometry">
            <mxPoint x="2135.5" y="72" as="targetPoint" />
          </mxGeometry>
        </mxCell>
        <mxCell id="SIbeXiMkhlzWqAwlZW-l-100" value="Report&lt;br&gt;Document" style="rounded=0;whiteSpace=wrap;html=1;fillColor=#647687;strokeColor=#314354;fontColor=#ffffff;fontSize=15;" parent="1" vertex="1">
          <mxGeometry x="1907.5" y="25.75" width="87" height="43.5" as="geometry" />
        </mxCell>
        <mxCell id="SIbeXiMkhlzWqAwlZW-l-75" value="Member Info" style="rounded=0;whiteSpace=wrap;html=1;fillColor=#647687;strokeColor=#314354;fontColor=#ffffff;fontSize=15;" parent="1" vertex="1">
          <mxGeometry x="2100.5" y="238.5" width="82" height="41" as="geometry" />
        </mxCell>
        <mxCell id="6MY7E0qqYCqP_GdmZhxb-107" value="Check&lt;br&gt;Availability" style="rounded=0;whiteSpace=wrap;html=1;fillColor=#647687;fontColor=#ffffff;strokeColor=#314354;fontSize=10;" parent="1" vertex="1">
          <mxGeometry x="1600" y="253.67000000000002" width="63.66" height="31.83" as="geometry" />
        </mxCell>
        <mxCell id="6MY7E0qqYCqP_GdmZhxb-109" value="Availability&lt;br&gt;Status" style="rounded=0;whiteSpace=wrap;html=1;fillColor=#647687;fontColor=#ffffff;strokeColor=#314354;fontSize=10;" parent="1" vertex="1">
          <mxGeometry x="1658.84" y="382.17" width="63.66" height="31.83" as="geometry" />
        </mxCell>
        <mxCell id="6MY7E0qqYCqP_GdmZhxb-110" style="edgeStyle=orthogonalEdgeStyle;rounded=0;orthogonalLoop=1;jettySize=auto;html=1;exitX=0.25;exitY=1;exitDx=0;exitDy=0;entryX=0.372;entryY=0.01;entryDx=0;entryDy=0;entryPerimeter=0;" parent="1" source="SIbeXiMkhlzWqAwlZW-l-75" target="SIbeXiMkhlzWqAwlZW-l-23" edge="1">
          <mxGeometry relative="1" as="geometry" />
        </mxCell>
        <mxCell id="6MY7E0qqYCqP_GdmZhxb-112" style="edgeStyle=orthogonalEdgeStyle;rounded=0;orthogonalLoop=1;jettySize=auto;html=1;exitX=0.25;exitY=0;exitDx=0;exitDy=0;entryX=0.883;entryY=0.995;entryDx=0;entryDy=0;entryPerimeter=0;" parent="1" source="SIbeXiMkhlzWqAwlZW-l-57" target="SIbeXiMkhlzWqAwlZW-l-3" edge="1">
          <mxGeometry relative="1" as="geometry" />
        </mxCell>
        <mxCell id="6MY7E0qqYCqP_GdmZhxb-113" value="Notify" style="rounded=0;whiteSpace=wrap;html=1;fillColor=#647687;strokeColor=#314354;fontColor=#ffffff;fontSize=13;" parent="1" vertex="1">
          <mxGeometry x="1347.7700000000002" y="297" width="58.34" height="29.17" as="geometry" />
        </mxCell>
        <mxCell id="4zvIdIuYwLj5NkcdouDY-3" style="edgeStyle=orthogonalEdgeStyle;rounded=0;orthogonalLoop=1;jettySize=auto;html=1;exitX=1.021;exitY=0.614;exitDx=0;exitDy=0;exitPerimeter=0;entryX=0.75;entryY=1;entryDx=0;entryDy=0;" parent="1" source="SIbeXiMkhlzWqAwlZW-l-13" target="SIbeXiMkhlzWqAwlZW-l-57" edge="1">
          <mxGeometry relative="1" as="geometry">
            <mxPoint x="1549" y="460" as="targetPoint" />
          </mxGeometry>
        </mxCell>
        <mxCell id="0VFq2frsCPP7xvFXGnlF-2" style="edgeStyle=orthogonalEdgeStyle;rounded=0;orthogonalLoop=1;jettySize=auto;html=1;exitX=0.5;exitY=1;exitDx=0;exitDy=0;entryX=0.25;entryY=1;entryDx=0;entryDy=0;" edge="1" parent="1" source="SIbeXiMkhlzWqAwlZW-l-13" target="SIbeXiMkhlzWqAwlZW-l-65">
          <mxGeometry relative="1" as="geometry" />
        </mxCell>
        <mxCell id="SIbeXiMkhlzWqAwlZW-l-13" value="D3" style="swimlane;whiteSpace=wrap;html=1;direction=north;startSize=35;rounded=1;fillColor=#e3c800;fontColor=#000000;strokeColor=#B09500;" parent="1" vertex="1">
          <mxGeometry x="1440" y="553.23" width="145" height="45.53" as="geometry" />
        </mxCell>
        <mxCell id="SIbeXiMkhlzWqAwlZW-l-19" value="Reservations" style="text;html=1;align=center;verticalAlign=middle;resizable=0;points=[];autosize=1;strokeColor=none;fillColor=none;fontSize=14;" parent="SIbeXiMkhlzWqAwlZW-l-13" vertex="1">
          <mxGeometry x="35" y="7.770000000000001" width="110" height="30" as="geometry" />
        </mxCell>
        <mxCell id="6MY7E0qqYCqP_GdmZhxb-118" value="Level-0 DFD&lt;br style=&quot;font-size: 18px;&quot;&gt;&lt;br style=&quot;font-size: 18px;&quot;&gt;Library Management System" style="text;html=1;align=center;verticalAlign=middle;resizable=0;points=[];autosize=1;strokeColor=none;fillColor=none;fontStyle=1;fontSize=18;" parent="1" vertex="1">
          <mxGeometry x="1693" y="145.5" width="270" height="80" as="geometry" />
        </mxCell>
        <mxCell id="SIbeXiMkhlzWqAwlZW-l-65" value="5" style="swimlane;whiteSpace=wrap;html=1;rounded=1;fillColor=#6d8764;fontColor=#ffffff;strokeColor=#3A5431;container=0;" parent="1" vertex="1">
          <mxGeometry x="1871.5" y="344" width="145" height="80" as="geometry" />
        </mxCell>
        <mxCell id="SIbeXiMkhlzWqAwlZW-l-66" value="GenerateReports" style="text;html=1;align=center;verticalAlign=middle;resizable=0;points=[];autosize=1;strokeColor=none;fillColor=none;fontSize=16;" parent="SIbeXiMkhlzWqAwlZW-l-65" vertex="1">
          <mxGeometry x="-5" y="35" width="150" height="30" as="geometry" />
        </mxCell>
        <mxCell id="SIbeXiMkhlzWqAwlZW-l-82" value="Report Data" style="rounded=0;whiteSpace=wrap;html=1;fillColor=#647687;strokeColor=#314354;fontColor=#ffffff;fontSize=15;" parent="1" vertex="1">
          <mxGeometry x="2010.5" y="184.5" width="87" height="43.5" as="geometry" />
        </mxCell>
        <mxCell id="9-8SL24ZD29cEMsJOT-W-1" value="Members Data" style="rounded=0;whiteSpace=wrap;html=1;fillColor=#647687;strokeColor=#314354;fontColor=#ffffff;fontSize=12;" parent="1" vertex="1">
          <mxGeometry x="1954" y="490" width="60" height="30" as="geometry" />
        </mxCell>
        <mxCell id="4zvIdIuYwLj5NkcdouDY-1" style="edgeStyle=orthogonalEdgeStyle;rounded=0;orthogonalLoop=1;jettySize=auto;html=1;exitX=0.25;exitY=1;exitDx=0;exitDy=0;entryX=0.983;entryY=0.141;entryDx=0;entryDy=0;entryPerimeter=0;" parent="1" source="SIbeXiMkhlzWqAwlZW-l-57" target="SIbeXiMkhlzWqAwlZW-l-13" edge="1">
          <mxGeometry relative="1" as="geometry" />
        </mxCell>
        <mxCell id="4zvIdIuYwLj5NkcdouDY-2" value="Book Info" style="rounded=0;whiteSpace=wrap;html=1;fillColor=#647687;strokeColor=#314354;fontColor=#ffffff;fontSize=11;" parent="1" vertex="1">
          <mxGeometry x="1429" y="480" width="66.59" height="30.5" as="geometry" />
        </mxCell>
        <mxCell id="4zvIdIuYwLj5NkcdouDY-4" value="Deliver Date" style="rounded=0;whiteSpace=wrap;html=1;fillColor=#647687;strokeColor=#314354;fontColor=#ffffff;fontSize=11;" parent="1" vertex="1">
          <mxGeometry x="1505" y="480" width="66.59" height="30.5" as="geometry" />
        </mxCell>
        <mxCell id="0VFq2frsCPP7xvFXGnlF-3" value="Reservations&lt;br&gt;Data" style="rounded=0;whiteSpace=wrap;html=1;fillColor=#647687;strokeColor=#314354;fontColor=#ffffff;fontSize=12;" vertex="1" parent="1">
          <mxGeometry x="1756" y="556" width="82.5" height="41.25" as="geometry" />
        </mxCell>
      </root>
    </mxGraphModel>
  </diagram>
</mxfile>
